<?xml version="1.0" encoding="utf-8"?>
<!-- Generator: Adobe Illustrator 22.1.0, SVG Export Plug-In . SVG Version: 6.00 Build 0)  -->
<svg version="1.1" id="Capa_1" xmlns="http://www.w3.org/2000/svg" xmlns:xlink="http://www.w3.org/1999/xlink" x="0px" y="0px"
	 viewBox="0 0 16 9.7" style="enable-background:new 0 0 16 9.7;" xml:space="preserve">
<style type="text/css">
	.st0{fill:#FFFFFF;}
</style>
<title>arrow--g</title>
<g id="Capa_2_1_">
	<g id="cuerpo">
		<path class="st0" d="M7.4,9.4L0.3,2.3c-0.3-0.3-0.4-0.9,0-1.2c0,0,0,0,0,0l0.8-0.8c0.3-0.3,0.9-0.3,1.2,0c0,0,0,0,0,0L8,5.9
			l5.6-5.6c0.3-0.3,0.9-0.4,1.2,0c0,0,0,0,0,0l0.8,0.8c0.3,0.3,0.3,0.9,0,1.2L8.6,9.4C8.3,9.8,7.7,9.8,7.4,9.4z"/>
	</g>
</g>
</svg>
