<svg xmlns="http://www.w3.org/2000/svg" viewBox="0 0 36.1 33.92"><defs><style>.cls-1{fill:#8baeb4;stroke:#8baeb4;stroke-miterlimit:10;stroke-width:0.94px;}</style></defs><title>bath--g</title><g id="Capa_2" data-name="Capa 2"><g id="cuerpo"><g id="ICON_BAÑO" data-name="ICON BAÑO"><path class="cls-1" d="M35.63,25.76a5.69,5.69,0,0,1-1,2.26,4.79,4.79,0,0,1-3.1,1.9c-.28,0-.37.11-.29.43a2.37,2.37,0,0,1-1.93,3,2.42,2.42,0,0,1-2.77-2.1,2,2,0,0,1,.1-1c.09-.25,0-.34-.25-.33a1.08,1.08,0,0,1-.18,0H9.87c-.51,0-.51,0-.39.49a2.4,2.4,0,0,1-1,2.51,2.36,2.36,0,0,1-2.8,0,2.42,2.42,0,0,1-.92-2.5c.12-.46.12-.46-.34-.55a4.92,4.92,0,0,1-4-4.77V18.55a1.86,1.86,0,0,1,.61-1.48,1,1,0,0,0,.34-.86,2.94,2.94,0,0,1,1.81-2.89,2.93,2.93,0,0,1,3.09.25.58.58,0,0,0,.77,0,3.05,3.05,0,0,1,3.76.18,1.09,1.09,0,0,0,1,.27,2.66,2.66,0,0,1,3,2.34.74.74,0,0,0,.3.58,1.67,1.67,0,0,1,.6.81.43.43,0,0,0,.47.32c1,0,1.95,0,2.92,0a.54.54,0,0,0,.45-.21,2,2,0,0,1,1.63-.75H29.7a2,2,0,0,1,1.62.71.64.64,0,0,0,.57.25c.61,0,1.22,0,1.83,0s.52,0,.52-.51V11.85c0-2.25,0-4.49,0-6.74a3.23,3.23,0,0,0-4.9-2.78,3.39,3.39,0,0,0-1.61,2.88c-.06.75.05,1.23.9,1.55A3,3,0,0,1,30.5,9.29a.37.37,0,0,0,.36.37.7.7,0,0,1,.66.74.71.71,0,0,1-.79.64H23.4a.71.71,0,0,1-.8-.62c0-.4.18-.68.66-.76a.37.37,0,0,0,.33-.33A3.47,3.47,0,0,1,26.05,6.5a.39.39,0,0,0,.28-.44c0-.48,0-.95.05-1.43a4.64,4.64,0,0,1,7.35-3.26A4.51,4.51,0,0,1,35.5,4c0,.15.09.3.13.45ZM18,28.61h12.7a3.5,3.5,0,0,0,3.43-2.85,16.11,16.11,0,0,0,.06-2.6c0-.24-.16-.27-.35-.27H32.31c-.47,0-.48,0-.48.47v3.12c0,.77-.21,1-1,1H20.15c-.79,0-1-.2-1-1V20c0-.58,0-.58-.59-.58H2.19c-.23,0-.33.11-.32.34V21c0,.53,0,.53.52.53h8.1c.45,0,.9,0,1.35,0a.67.67,0,0,1,.7.62.72.72,0,0,1-.58.74,3.32,3.32,0,0,1-.55,0H2.33c-.34,0-.48.1-.47.46s0,1,0,1.53a3.52,3.52,0,0,0,3.71,3.73Zm7.44-2.56h4.43c.51,0,.52,0,.52-.5V19.4c0-.68-.22-.89-.91-.89h-8c-.7,0-.92.21-.92.91,0,2,0,4.1,0,6.15,0,.36.1.49.48.49C22.5,26,24,26.05,25.48,26.05ZM2.18,18H14.26c-.71-.52-.71-.52-.75-1.43a1.27,1.27,0,0,0-1.91-1.05c-.63.32-.86.27-1.25-.3a1.76,1.76,0,0,0-3-.07c-.49.63-.89.63-1.37,0a1.77,1.77,0,0,0-2.21-.62,1.8,1.8,0,0,0-1,2C3,17.5,3,17.5,2.21,18,2.2,18,2.2,18,2.18,18ZM27,9.64h1.64c.45,0,.51-.1.35-.53a2.1,2.1,0,0,0-2.08-1.37A2.12,2.12,0,0,0,25,9.25c-.09.28,0,.4.28.39ZM33,21.5h0c.3,0,.61,0,.91,0a.27.27,0,0,0,.31-.31c0-.47,0-1,0-1.42,0-.22-.11-.31-.32-.31H32.13c-.21,0-.31.1-.3.31,0,.46,0,.93,0,1.39,0,.26.11.35.36.34S32.74,21.5,33,21.5ZM6.12,31a1,1,0,0,0,1,1,1,1,0,0,0,0-2A1,1,0,0,0,6.12,31ZM29,30a1,1,0,0,0-1,1,1,1,0,1,0,1-1Z"/></g></g></g></svg>