<svg xmlns="http://www.w3.org/2000/svg" viewBox="0 0 95.2 105.05"><defs><style>.cls-1{fill:#2f3f49;}</style></defs><title>PUBLICIDAD ASPECTOS POSITIVOS (2)</title><g id="Capa_2" data-name="Capa 2"><g id="cuerpo"><g id="PUBLICIDAD_ASPECTOS_POSITIVOS" data-name="PUBLICIDAD ASPECTOS POSITIVOS"><g id="ELEMENTO_2" data-name="ELEMENTO 2"><path class="cls-1" d="M53.37,0a2.67,2.67,0,0,1,1.2,3.21,6.22,6.22,0,0,1-2.22,3.53c-.82.66-1.7,1.25-2.55,1.88-1.65,1.23-1.64,2.31,0,3.54.76.56,1.56,1.06,2.3,1.66,3.45,2.77,3.43,7,0,9.79-.6.47-1.23.91-1.87,1.34a3.51,3.51,0,0,0-1.78,2.46A2,2,0,0,1,46,29.12a2.26,2.26,0,0,1-1.76-2.53,6,6,0,0,1,2.35-4.28c.94-.75,2-1.4,2.89-2.16,1.17-.95,1.17-2,0-2.91-.9-.73-1.89-1.35-2.8-2.09a5.86,5.86,0,0,1-.08-9.5A21,21,0,0,1,48.5,4.23a3.57,3.57,0,0,0,2-2.71C50.52.82,51.09.4,51.62,0Z"/><path class="cls-1" d="M67.58,0c1.38.9,1.38,2.21,1,3.59A6.49,6.49,0,0,1,66,7.13c-.77.6-1.61,1.12-2.37,1.75-1.27,1-1.24,2,.06,3,1,.77,2,1.44,3,2.24a5.74,5.74,0,0,1,2.07,5.56,6.58,6.58,0,0,1-2.81,4.14c-.63.49-1.3.93-2,1.4a3,3,0,0,0-1.37,2.12,2,2,0,0,1-2.26,1.76,2.11,2.11,0,0,1-2-2.11,5.71,5.71,0,0,1,2.33-4.72c.81-.66,1.7-1.24,2.55-1.87,1.67-1.26,1.66-2.25,0-3.52-.79-.58-1.62-1.12-2.38-1.74-3.28-2.66-3.34-6.72-.15-9.5a18.57,18.57,0,0,1,1.84-1.36c1.05-.7,2-1.41,2.12-2.85.05-.7.64-1.1,1.2-1.47Z"/><path class="cls-1" d="M39.15,0a2.63,2.63,0,0,1,1.3,3.17,6.12,6.12,0,0,1-2.3,3.62c-.73.59-1.52,1.12-2.29,1.68-2,1.46-2,2.36,0,3.83.65.47,1.32.91,2,1.4,3.63,2.89,3.62,7.14,0,10-.6.48-1.23.92-1.86,1.34a3.21,3.21,0,0,0-1.67,2.41A2,2,0,0,1,32,29.14,2.1,2.1,0,0,1,30.11,27c-.1-2.21,1.09-3.71,2.69-5,.8-.63,1.68-1.17,2.47-1.81,1.24-1,1.25-2,0-3-.77-.61-1.59-1.17-2.39-1.74C29.27,12.9,29,8.18,32.71,5.41q1-.72,1.95-1.41A3.12,3.12,0,0,0,36.3,1.57c0-.7.67-1.08,1.1-1.57Z"/><path class="cls-1" d="M47.59,30.75q18.09,0,36.18,0A6.12,6.12,0,0,1,87.1,42.19,1.86,1.86,0,0,0,86,44a4.54,4.54,0,0,1,0,1c-.46,2.32,0,1.93,1.72,1.94s3.42,0,5.13,0a2.15,2.15,0,1,1,0,4.28c-2.33,0-4.66,0-7,0-.81,0-1.13.29-1.37,1a38.07,38.07,0,0,1-17,21.6c-.92.57-1.06.93-.52,1.92q6.42,11.86,12.69,23.82a1.73,1.73,0,0,0,2,1.15,5.74,5.74,0,0,1,1.31,0A2.11,2.11,0,0,1,85,103a2,2,0,0,1-2.14,2q-4.3,0-8.63,0A2.12,2.12,0,0,1,72,102.94a2.22,2.22,0,0,1,2.17-2.18c1.19-.11,1.18-.1.59-1.19-2-3.83-4.1-7.64-6.1-11.49A1.67,1.67,0,0,0,67,87q-19.08,0-38.15,0a1.68,1.68,0,0,0-1.71,1C25.06,92,23,95.85,20.9,99.74c-.34.63-.49,1,.5,1.07A2,2,0,0,1,23.24,103a2.09,2.09,0,0,1-2.17,2q-4.32,0-8.64,0a2.11,2.11,0,0,1-2.19-2.11,2.18,2.18,0,0,1,2.16-2.16,1.62,1.62,0,0,1,.44,0c2.08.43,3-.66,3.94-2.42,3.86-7.48,7.87-14.87,11.84-22.3.66-1.25.66-1.22-.57-2A38.22,38.22,0,0,1,10.92,52.62c-.34-1-.79-1.45-1.9-1.4-2.18.08-4.37,0-6.55,0A2.23,2.23,0,0,1,0,49,2.2,2.2,0,0,1,2.45,47c2,0,4.08,0,6.12,0,.73,0,1-.2.83-1a17.6,17.6,0,0,1-.25-2.61c0-.71-.52-.88-1-1.16a6,6,0,0,1-3.1-6,6.08,6.08,0,0,1,4.6-5.38A8.35,8.35,0,0,1,12,30.75Zm.09,12.35H21.11c-2.11,0-4.23.06-6.34,0-1,0-1.36.3-1.17,1.31.23,1.25.32,2.53.59,3.77A34.17,34.17,0,0,0,49.51,75,34.25,34.25,0,0,0,81.63,44.75c.19-1.56.17-1.65-1.36-1.65Zm-.23-4.43H82.76c.4,0,.8,0,1.2,0a1.8,1.8,0,1,0,0-3.6c-.25,0-.51,0-.76,0H12.06a6,6,0,0,0-1.2.06A1.68,1.68,0,0,0,9.46,37a1.6,1.6,0,0,0,1.6,1.62c.43,0,.87,0,1.31,0Zm.36,44h16.5c1.34,0,1.36-.05.73-1.25s-1.4-2.55-2-3.87c-.38-.77-.76-1-1.61-.62A38.17,38.17,0,0,1,34.27,77a1.11,1.11,0,0,0-1.64.65c-.61,1.24-1.29,2.45-1.94,3.67s-.67,1.27.72,1.27Z"/><path class="cls-1" d="M48.41,71.74a8.61,8.61,0,0,1-.88,0,2.17,2.17,0,0,1-.11-4.32c1.29-.23,2.61-.1,3.92-.3A26.08,26.08,0,0,0,69.39,56c.26-.36.49-.73.76-1.07a2.19,2.19,0,0,1,3-.61,2.15,2.15,0,0,1,.58,3,23,23,0,0,1-2.5,3.45,30.37,30.37,0,0,1-21,10.87c-.33,0-.65.1-1,.12s-.58,0-.87,0Z"/><path class="cls-1" d="M77.41,48.6a2.29,2.29,0,0,1-2.19,2.15,2.26,2.26,0,0,1-2.13-2.2,2.16,2.16,0,0,1,4.32.05Z"/></g></g></g></g></svg>