<svg xmlns="http://www.w3.org/2000/svg" viewBox="0 0 35.4 29.07"><defs><style>.cls-1{fill:#8baeb4;}</style></defs><title>bed--g</title><g id="Capa_2" data-name="Capa 2"><g id="cuerpo"><path class="cls-1" d="M0,28.32V15a3.18,3.18,0,0,1,1.6-2.18.77.77,0,0,0,.47-.81q0-4.34,0-8.66A3.14,3.14,0,0,1,5.44,0H30a3.15,3.15,0,0,1,3.38,3.39v8.73a.69.69,0,0,0,.4.7,3,3,0,0,1,1.66,2.75c0,4.08,0,8.16,0,12.24a1.1,1.1,0,0,1-1.25,1.25H30.58c-1,0-1.43-.36-1.44-1.41,0-.74,0-1.47,0-2.21,0-.47-.05-.52-.5-.52H6.77c-.46,0-.51,0-.51.51,0,.77,0,1.55,0,2.32,0,.95-.41,1.31-1.35,1.31-1.17,0-2.34,0-3.5,0A1.37,1.37,0,0,1,0,28.32ZM17.71,2.08h-12a4.12,4.12,0,0,0-.7,0A1,1,0,0,0,4.19,3a3.18,3.18,0,0,0-.05.62v8.22c0,.11,0,.22,0,.33a.27.27,0,0,0,.3.3H6c.22,0,.31-.11.26-.33a13.81,13.81,0,0,1-.08-2.8A3,3,0,0,1,9,6.26a28.49,28.49,0,0,1,4.71,0,3,3,0,0,1,2.91,2.93,14,14,0,0,1-.07,3c0,.19,0,.3.22.3h1.8c.17,0,.25-.1.21-.27a14.13,14.13,0,0,1-.08-2.68,3.11,3.11,0,0,1,3.15-3.28c1.36,0,2.73,0,4.09,0a3.11,3.11,0,0,1,3.21,3,12.19,12.19,0,0,1-.08,2.83c-.05.27.06.37.31.36h1.22c.62,0,.62,0,.62-.61V3.56a3.77,3.77,0,0,0,0-.48,1,1,0,0,0-1-1,5.72,5.72,0,0,0-.59,0Zm0,16.58H32.75c.55,0,.57,0,.57-.56,0-.77,0-1.55,0-2.32a1.09,1.09,0,0,0-1.25-1.24H3.32c-.84,0-1.23.39-1.24,1.24,0,.68,0,1.36,0,2,0,.9-.06.85.83.85Zm0,2.13H2.47c-.28,0-.4.12-.4.4,0,1.8,0,3.61,0,5.42,0,.27.13.37.39.37s.81,0,1.21,0,.47-.11.46-.45c0-.69,0-1.38,0-2.07,0-1.37.29-1.67,1.66-1.67H30a1.14,1.14,0,0,1,1.25,1.3c0,.8,0,1.59,0,2.39,0,.44,0,.48.5.49h1c.5,0,.53,0,.53-.52v-5c0-.65,0-.65-.66-.65ZM11.44,8.33c-.68,0-1.35,0-2,0A1,1,0,0,0,8.33,9.41c0,.64,0,1.28,0,1.91a1,1,0,0,0,1.09,1.13q2,0,4,0a1,1,0,0,0,1.13-1.09,18.87,18.87,0,0,0,0-2,1,1,0,0,0-1.1-1C12.79,8.32,12.11,8.33,11.44,8.33ZM24,12.45h2a1,1,0,0,0,1.08-1.1c0-.62,0-1.25,0-1.88a1,1,0,0,0-1.13-1.14H22a1.05,1.05,0,0,0-1.18,1.16c0,.59,0,1.18,0,1.76A1.09,1.09,0,0,0,22,12.45C22.68,12.46,23.32,12.45,24,12.45Z"/></g></g></svg>