<svg xmlns="http://www.w3.org/2000/svg" viewBox="0 0 30.8 23.17"><defs><style>.cls-1{fill:#6d6d6d;}</style></defs><title>calendar</title><g id="Capa_2" data-name="Capa 2"><g id="Ãconos"><path class="cls-1" d="M0,3.16A2.41,2.41,0,0,1,.87,1.9a2.38,2.38,0,0,1,1.38-.42H6.37c.39,0,.39,0,.4-.4,0-.12,0-.24,0-.36A.67.67,0,0,1,7.49,0a.71.71,0,0,1,.75.7V.79c0,.68,0,.68.69.68h2.74c.26,0,.36-.09.34-.35a2.16,2.16,0,0,1,0-.36A.72.72,0,0,1,12.75,0a.69.69,0,0,1,.73.77c0,.7,0,.7.72.7.89,0,1.78,0,2.68,0,.4,0,.4,0,.4-.42,0-.11,0-.22,0-.33A.68.68,0,0,1,18,0a.72.72,0,0,1,.76.72V.9c0,.61-.07.57.56.57h2.86c.25,0,.37-.08.34-.34s0-.28,0-.42A.72.72,0,0,1,23.26,0,.7.7,0,0,1,24,.73V.85c0,.69-.1.62.65.62h3.91a2.17,2.17,0,0,1,2.19,1.7,2.67,2.67,0,0,1,0,.63c0,5.68,0,11.36,0,17a2.19,2.19,0,0,1-2.27,2.33h-26a3.38,3.38,0,0,1-.95-.1A2.15,2.15,0,0,1,0,21.49Zm15.37,18.5h13.1c.6,0,.83-.23.84-.84V4a1.33,1.33,0,0,0-.06-.56A.6.6,0,0,0,28.69,3H24.24c-.19,0-.24.1-.24.27a5.42,5.42,0,0,1,0,.57.71.71,0,0,1-.72.7.76.76,0,0,1-.74-.66,3.25,3.25,0,0,1,0-.54c0-.27-.08-.34-.34-.34H19.5c-.73,0-.73,0-.74.72v.12a.77.77,0,0,1-.74.7.71.71,0,0,1-.73-.69q0-.3,0-.6c0-.19-.08-.25-.26-.25h-3.3c-.18,0-.26.07-.25.25a5.42,5.42,0,0,1,0,.57.72.72,0,0,1-.74.72A.77.77,0,0,1,12,3.8a4.86,4.86,0,0,1,0-.54c0-.19-.08-.27-.27-.27H8.53c-.21,0-.3.07-.29.28a4,4,0,0,1,0,.6.75.75,0,0,1-.74.66.72.72,0,0,1-.72-.7,2.57,2.57,0,0,1,0-.48c0-.29-.1-.36-.37-.36h-4c-.68,0-.92.24-.92.92q0,8.41,0,16.82c0,.72.21.93.93.93Z"/><path class="cls-1" d="M7.73,12.91V10.78A.69.69,0,0,1,8.51,10h4.26a.68.68,0,0,1,.76.76c0,1.44,0,2.88,0,4.33a.68.68,0,0,1-.74.75H8.49a.69.69,0,0,1-.76-.77Zm2.88-1.56H9.35c-.2,0-.27.07-.27.26q0,1.29,0,2.58c0,.2.09.27.27.27.85,0,1.7,0,2.55,0,.21,0,.29-.08.29-.28q0-1.26,0-2.52c0-.24-.1-.32-.33-.31Z"/><path class="cls-1" d="M20.12,9a.82.82,0,0,1-.77-.8.83.83,0,0,1,.79-.78.79.79,0,1,1,0,1.58Z"/><path class="cls-1" d="M10.64,9a.8.8,0,0,1-.79-.77.82.82,0,0,1,.77-.81.84.84,0,0,1,.8.78A.82.82,0,0,1,10.64,9Z"/><path class="cls-1" d="M16.17,8.17a.79.79,0,1,1-1.57,0,.79.79,0,1,1,1.57,0Z"/><path class="cls-1" d="M24.87,8.94a.79.79,0,0,1-.77-.79.79.79,0,1,1,1.57,0A.79.79,0,0,1,24.87,8.94Z"/><path class="cls-1" d="M5.88,8.94a.77.77,0,0,1-.78-.78.81.81,0,0,1,.79-.79.82.82,0,0,1,.77.8A.78.78,0,0,1,5.88,8.94Z"/><path class="cls-1" d="M20.13,13.69a.79.79,0,0,1-.78-.78.83.83,0,0,1,.79-.79.82.82,0,0,1,.78.79A.8.8,0,0,1,20.13,13.69Z"/><path class="cls-1" d="M5.88,13.69a.78.78,0,0,1-.78-.79.81.81,0,0,1,.79-.78.82.82,0,0,1,.77.81A.78.78,0,0,1,5.88,13.69Z"/><path class="cls-1" d="M15.39,13.69a.8.8,0,0,1-.79-.75.79.79,0,1,1,1.57,0A.8.8,0,0,1,15.39,13.69Z"/><path class="cls-1" d="M25.67,12.92a.8.8,0,0,1-.8.77.79.79,0,0,1-.77-.77.83.83,0,0,1,.79-.8A.82.82,0,0,1,25.67,12.92Z"/><path class="cls-1" d="M5.88,18.44a.8.8,0,0,1-.78-.79.81.81,0,0,1,.76-.78.82.82,0,0,1,.8.81A.78.78,0,0,1,5.88,18.44Z"/><path class="cls-1" d="M25.67,17.66a.79.79,0,0,1-1.57,0,.83.83,0,0,1,.78-.81A.82.82,0,0,1,25.67,17.66Z"/><path class="cls-1" d="M10.63,18.44a.8.8,0,0,1-.78-.79.78.78,0,1,1,1.56,0A.78.78,0,0,1,10.63,18.44Z"/><path class="cls-1" d="M20.92,17.67a.79.79,0,0,1-1.57,0,.84.84,0,0,1,.79-.8A.83.83,0,0,1,20.92,17.67Z"/><path class="cls-1" d="M15.38,18.44a.8.8,0,0,1-.78-.79.79.79,0,0,1,1.57,0A.8.8,0,0,1,15.38,18.44Z"/></g></g></svg>