<svg xmlns="http://www.w3.org/2000/svg" viewBox="0 0 43.93 22.03"><defs><style>.cls-1{fill:#6d6d6d;}</style></defs><title>car</title><g id="Capa_2" data-name="Capa 2"><g id="Ãconos"><path class="cls-1" d="M0,9.2A5,5,0,0,1,1.47,6.64,4.11,4.11,0,0,1,4.18,5.51,3.13,3.13,0,0,0,7,3.84,13.79,13.79,0,0,1,8.78,1.3,4.21,4.21,0,0,1,11.9,0H25.31a4.6,4.6,0,0,1,3,1.08c2.18,1.74,4.38,3.44,6.51,5.24a4,4,0,0,0,2.95,1,6.62,6.62,0,0,1,1.54,0,5.29,5.29,0,0,1,4,3.18,6.91,6.91,0,0,1,.65,3.8,4.33,4.33,0,0,1-3.18,3.85,1,1,0,0,0-.67.68,4.47,4.47,0,0,1-3.36,3,4.58,4.58,0,0,1-5.41-3,.63.63,0,0,0-.71-.5H13.5c-.69,0-.69,0-.94.64A4.62,4.62,0,0,1,6,21.48a4.51,4.51,0,0,1-2.23-2.7.82.82,0,0,0-.58-.61A4.67,4.67,0,0,1,0,14.6ZM18.65,1.92c-2.15,0-4.29,0-6.43,0A2.89,2.89,0,0,0,9.63,3.33C9.19,4,8.71,4.7,8.25,5.39a4.38,4.38,0,0,1-3.71,2A2.64,2.64,0,0,0,1.9,10.08c0,1.22,0,2.43,0,3.64A2.62,2.62,0,0,0,3.07,16c.55.37.6.34.85-.24a4.61,4.61,0,0,1,5.31-2.83A4.52,4.52,0,0,1,12.62,16a.64.64,0,0,0,.74.5q8.54,0,17.06,0c.5,0,.77-.12.88-.62a2.45,2.45,0,0,1,.3-.66,4.59,4.59,0,0,1,6.81-1.5A4.7,4.7,0,0,1,40,15.94c.11.29.23.34.51.2a2.4,2.4,0,0,0,1.36-1.81,5.16,5.16,0,0,0-.77-3.57,3,3,0,0,0-2.33-1.49c-.73-.08-1.45,0-2.18,0a3.85,3.85,0,0,1-2.31-.8q-3.45-2.74-6.89-5.51a4.05,4.05,0,0,0-2.74-1C22.67,2,20.66,1.92,18.65,1.92ZM8.24,20.07a2.76,2.76,0,0,0,2.69-2.68,2.8,2.8,0,0,0-2.69-2.68,2.79,2.79,0,0,0-2.72,2.71A2.76,2.76,0,0,0,8.24,20.07Zm27.41,0a2.73,2.73,0,0,0,2.7-2.66,2.7,2.7,0,0,0-2.67-2.69,2.68,2.68,0,1,0,0,5.35Z"/><path class="cls-1" d="M25.61,9.22H21.2c-.8,0-1.15-.35-1.15-1.14,0-1.12,0-2.23,0-3.34a1,1,0,0,1,1-1.11A1,1,0,0,1,22,4.72c0,.7,0,1.4,0,2.09,0,.39.12.49.49.49H30c.64,0,1,.28,1.09.8a.94.94,0,0,1-1,1.13Z"/><path class="cls-1" d="M13.72,9.22H10.17A1,1,0,0,1,9.24,7.7C9.8,6.56,10.38,5.43,11,4.3c.32-.63.85-.84,1.36-.57a1,1,0,0,1,.36,1.47c-.28.56-.55,1.13-.84,1.68-.17.31-.12.42.25.42h5.14a1.13,1.13,0,0,1,.69.17,1,1,0,0,1-.56,1.76Z"/><path class="cls-1" d="M23.79,11c.33,0,.65,0,1,0a.86.86,0,0,1,.87.87.92.92,0,0,1-.82,1,18.39,18.39,0,0,1-2.1,0,.92.92,0,0,1-.8-1A.85.85,0,0,1,22.8,11C23.13,11,23.46,11,23.79,11Z"/></g></g></svg>