<svg xmlns="http://www.w3.org/2000/svg" viewBox="0 0 53 33.57"><defs><style>.cls-1{fill:#f60886;}</style></defs><title>couch--p</title><g id="Capa_2" data-name="Capa 2"><g id="CABEZERA"><path class="cls-1" d="M48.58,10.68V6.18A6.18,6.18,0,0,0,42.4,0H30A4.4,4.4,0,0,0,26.5,1.79,4.4,4.4,0,0,0,23,0H10.6A6.18,6.18,0,0,0,4.42,6.18v4.5a5.29,5.29,0,0,0-2.65,9.16v9.31a.87.87,0,0,0,.88.88H4.42v2.65a.88.88,0,0,0,.88.89H8.83a.89.89,0,0,0,.89-.89V30H43.28v2.65a.89.89,0,0,0,.88.89H47.7a.88.88,0,0,0,.88-.89V30h1.77a.87.87,0,0,0,.88-.88V19.84a5.29,5.29,0,0,0-2.65-9.16ZM27.38,4.42A2.65,2.65,0,0,1,30,1.77H42.4a4.43,4.43,0,0,1,4.42,4.41v4.5A5.3,5.3,0,0,0,42.4,15.9H28.27a2.69,2.69,0,0,0-.89.16Zm0,14.13a.88.88,0,0,1,.89-.88H42.71a5.32,5.32,0,0,0,3.22,3.22V23H27.38ZM6.18,6.18A4.43,4.43,0,0,1,10.6,1.77H23a2.65,2.65,0,0,1,2.65,2.65V16.06a2.74,2.74,0,0,0-.89-.16H10.6a5.31,5.31,0,0,0-4.42-5.22ZM25.62,18.55V23H7.07V20.89a5.35,5.35,0,0,0,3.22-3.22H24.73A.88.88,0,0,1,25.62,18.55ZM1.77,15.9A3.53,3.53,0,1,1,5.3,19.43,3.53,3.53,0,0,1,1.77,15.9ZM8,31.8H6.18V30H8Zm38.87,0H45.05V30h1.77Zm2.64-3.53H3.53V20.89a5.36,5.36,0,0,0,1.77.31v2.65a.88.88,0,0,0,.88.88H46.82a.88.88,0,0,0,.88-.88V21.2a5.26,5.26,0,0,0,1.76-.31ZM47.7,19.43a3.53,3.53,0,1,1,3.53-3.53A3.54,3.54,0,0,1,47.7,19.43Z"/></g></g></svg>