<svg xmlns="http://www.w3.org/2000/svg" viewBox="0 0 25.24 25.24"><defs><style>.cls-1{fill:#f60886;}</style></defs><title>hall--p</title><g id="Capa_2" data-name="Capa 2"><g id="CABEZERA"><path class="cls-1" d="M8.83,20.19H7.57a1.26,1.26,0,0,0-1.26-1.26H4.09l-.56-1.66a1.25,1.25,0,0,0-1.19-.87H1.59a1.25,1.25,0,0,0-1,.53,1.23,1.23,0,0,0-.17,1.13l.33,1A1.28,1.28,0,0,0,0,20.19v4.63a.42.42,0,0,0,.42.42H9.67a.42.42,0,0,0,.42-.42V22.71a.42.42,0,0,0,.42-.42v-.42A1.68,1.68,0,0,0,8.83,20.19ZM1.25,17.42a.41.41,0,0,1,.34-.17h.75a.42.42,0,0,1,.4.28l.46,1.4H1.57L1.19,17.8A.43.43,0,0,1,1.25,17.42Zm8,7H.84v-4.2a.42.42,0,0,1,.42-.42H6.31a.42.42,0,0,1,.42.42v2.1a.42.42,0,0,0,.42.42h2.1ZM7.57,21.87V21H8.83a.84.84,0,0,1,.84.84Z"/><path class="cls-1" d="M24.51,19.05l.33-1a1.26,1.26,0,0,0-1.19-1.66H22.9a1.26,1.26,0,0,0-1.2.87l-.55,1.66H18.93a1.26,1.26,0,0,0-1.27,1.26H16.4a1.68,1.68,0,0,0-1.68,1.68v.42a.42.42,0,0,0,.42.42v2.11a.42.42,0,0,0,.42.42h9.26a.42.42,0,0,0,.42-.42V20.19A1.28,1.28,0,0,0,24.51,19.05Zm-2-1.52a.42.42,0,0,1,.4-.28h.75a.42.42,0,0,1,.34.17.43.43,0,0,1,.06.38l-.38,1.13H22ZM16.4,21h1.26v.84h-2.1A.85.85,0,0,1,16.4,21Zm8,3.36H16V22.71h2.1a.42.42,0,0,0,.43-.42v-2.1a.42.42,0,0,1,.42-.42h5a.42.42,0,0,1,.42.42Z"/><path class="cls-1" d="M14.72,8.41h-.84V7.15a.42.42,0,0,0-.42-.42H11.78a.42.42,0,0,0-.42.42V8.41h-.85V7.57a1.68,1.68,0,0,0-.82-1.44,1.65,1.65,0,0,0,.4-1.08A1.68,1.68,0,1,0,7.14,6.13a1.66,1.66,0,0,0-.83,1.44v.84H3.36V7.57H4.63a.42.42,0,0,0,.42-.42V4.63a.42.42,0,0,0-.42-.42H1.26a.42.42,0,0,0-.42.42V7.15a.42.42,0,0,0,.42.42H2.52v.84H.42A.42.42,0,0,0,0,8.83v1.68a.42.42,0,0,0,.42.43H.84v4.2a.42.42,0,0,0,.42.42H13.88a.42.42,0,0,0,.42-.42v-4.2h.42a.42.42,0,0,0,.42-.43V8.83A.42.42,0,0,0,14.72,8.41ZM12.2,7.57H13v.84H12.2ZM8.41,4.21a.84.84,0,0,1,0,1.68.84.84,0,0,1,0-1.68ZM7.15,7.57A.85.85,0,0,1,8,6.73h.84a.84.84,0,0,1,.84.84v.84H7.15ZM1.68,6.73V5.05H4.21V6.73Zm11.78,8H1.68V10.94H13.46Zm.84-4.63H.84V9.25H14.3Z"/><path class="cls-1" d="M24.82,1.26H22.29V.42A.42.42,0,0,0,21.87,0H19.35a.42.42,0,0,0-.42.42v.84H16.4a.42.42,0,0,0-.42.42V14.3a.42.42,0,0,0,.42.42h8.42a.42.42,0,0,0,.42-.42V1.68A.42.42,0,0,0,24.82,1.26ZM19.77.84h1.68v.84H19.77ZM20.19,8h-.84v.84h.84v5.05H18.51V4.21h1.68Zm2.52,5.89H21V8.83h.84V8H21V4.21h1.68Zm1.68,0h-.84V3.79a.41.41,0,0,0-.42-.42H18.08a.42.42,0,0,0-.42.42V13.88h-.84V2.1h2.11a.42.42,0,0,0,.42.42h2.52a.42.42,0,0,0,.42-.42h2.1Z"/></g></g></svg>