<?xml version="1.0" encoding="utf-8"?>
<!-- Generator: Adobe Illustrator 23.0.0, SVG Export Plug-In . SVG Version: 6.00 Build 0)  -->
<svg version="1.1" xmlns="http://www.w3.org/2000/svg" xmlns:xlink="http://www.w3.org/1999/xlink" x="0px" y="0px"
	 viewBox="0 0 90.3 128.9" style="enable-background:new 0 0 90.3 128.9;" xml:space="preserve">
<style type="text/css">
	.st0{fill:#D50D85;}
	.st1{opacity:0.92;}
	.st2{fill:#FFFFFF;}
</style>
<g id="Capa_1">
	<title>MAPA</title>
	<g>
		<g id="CUERPO">
			<g id="MAPA">
				<path class="st0" d="M77.1,13.2c-17.6-17.6-46.2-17.6-63.8,0C-2.6,29-4.5,58.7,9,76.7l36.2,52.2l36.1-52.2
					C94.8,58.7,92.8,29,77.1,13.2z"/>
				<g id="LOGO" class="st1">
					<path class="st2" d="M26.2,74.1l0.1-0.3c0.3,0.2,0.6,0.4,1,0.4c0.6,0,0.9-0.2,0.9-0.6c0-0.9-1.9-0.3-1.9-1.5
						c0-0.5,0.4-0.9,1.2-0.9c0.4,0,0.7,0.1,1,0.3l-0.1,0.3c-0.3-0.2-0.6-0.3-0.9-0.3c-0.6,0-0.8,0.3-0.8,0.6c0,0.9,1.9,0.3,1.9,1.5
						c0,0.5-0.4,0.9-1.2,0.9C26.9,74.5,26.5,74.3,26.2,74.1z"/>
					<path class="st2" d="M31.3,72.1v2.4H31V74c-0.3,0.5-0.9,0.6-1.4,0.3c-0.3-0.2-0.5-0.5-0.5-0.9v-1.4h0.3v1.3
						c0,0.5,0.3,0.8,0.7,0.8c0.4,0,0.8-0.3,0.8-0.7c0,0,0-0.1,0-0.1v-1.2H31.3z"/>
					<path class="st2" d="M34.3,73.3h-2c0,0.5,0.5,0.9,0.9,0.8c0.3,0,0.5-0.1,0.7-0.3l0.2,0.2c-0.5,0.5-1.3,0.5-1.8,0
						c-0.2-0.2-0.3-0.5-0.4-0.8c0-0.6,0.5-1.2,1.1-1.2C33.8,72.1,34.3,72.6,34.3,73.3C34.3,73.3,34.3,73.3,34.3,73.3
						C34.3,73.3,34.3,73.3,34.3,73.3z M32.3,73.1H34c0-0.4-0.4-0.8-0.8-0.8C32.7,72.3,32.3,72.7,32.3,73.1L32.3,73.1z"/>
					<path class="st2" d="M37.1,73.1v1.4h-0.3v-1.3c0.1-0.4-0.2-0.7-0.5-0.8c-0.1,0-0.1,0-0.2,0c-0.4,0-0.8,0.3-0.8,0.7
						c0,0,0,0.1,0,0.1v1.2h-0.3v-2.4h0.3v0.4c0.2-0.3,0.5-0.5,0.9-0.5c0.5,0,0.9,0.3,1,0.8C37.1,73,37.1,73,37.1,73.1z M35.5,71.7
						h-0.2c0-0.3,0.2-0.5,0.4-0.5s0.4,0.3,0.6,0.3s0.2-0.1,0.2-0.3h0.2c0,0.3-0.2,0.5-0.4,0.5s-0.4-0.3-0.6-0.3S35.5,71.5,35.5,71.7
						z"/>
					<path class="st2" d="M39.8,73v1.5h-0.3v-0.4c-0.2,0.3-0.5,0.4-0.8,0.4c-0.5,0-0.9-0.3-0.9-0.7s0.2-0.7,0.9-0.7h0.8V73
						c0-0.4-0.2-0.6-0.7-0.6c-0.3,0-0.6,0.1-0.8,0.3l-0.2-0.2c0.3-0.2,0.6-0.3,1-0.3c0.5-0.1,0.9,0.3,0.9,0.7
						C39.8,72.9,39.8,72.9,39.8,73z M39.5,73.8v-0.4h-0.8c-0.5,0-0.6,0.2-0.6,0.4s0.2,0.4,0.6,0.4C39,74.3,39.3,74,39.5,73.8
						L39.5,73.8z"/>
					<path class="st2" d="M40.3,74.2l0.1-0.3c0.2,0.2,0.5,0.3,0.8,0.3c0.5,0,0.6-0.2,0.6-0.4c0-0.6-1.5-0.1-1.5-1.1
						c0-0.4,0.3-0.7,0.9-0.7c0.3,0,0.6,0.1,0.8,0.2L42,72.5c-0.2-0.1-0.4-0.2-0.7-0.2c-0.4,0-0.6,0.2-0.6,0.4c0,0.6,1.5,0.2,1.5,1.1
						c0,0.4-0.3,0.7-1,0.7C40.9,74.5,40.6,74.4,40.3,74.2z"/>
					<path class="st2" d="M42.6,74.2c0-0.1,0.1-0.2,0.2-0.2c0,0,0,0,0,0c0.1,0,0.2,0.2,0.2,0.3c0,0.1-0.1,0.2-0.2,0.2
						C42.7,74.5,42.6,74.4,42.6,74.2z"/>
					<path class="st2" d="M43.6,74.2c0-0.1,0.1-0.2,0.2-0.2c0.1,0,0.2,0.1,0.2,0.2c0,0.1-0.1,0.2-0.2,0.2l0,0
						C43.7,74.5,43.6,74.4,43.6,74.2z"/>
					<path class="st2" d="M44.5,74.2c0-0.1,0.1-0.2,0.2-0.3c0.1,0,0.3,0.1,0.3,0.2c0,0.1-0.1,0.3-0.2,0.3c0,0-0.1,0-0.1,0
						C44.6,74.5,44.5,74.4,44.5,74.2z"/>
					<path class="st2" d="M47.7,73.3h-2c0,0.5,0.4,0.9,0.9,0.8c0,0,0,0,0,0c0.3,0,0.5-0.1,0.7-0.3l0.2,0.2c-0.2,0.3-0.6,0.4-0.9,0.4
						c-0.6,0-1.2-0.5-1.2-1.1c0,0,0-0.1,0-0.1c0-0.6,0.4-1.2,1.1-1.2c0,0,0.1,0,0.1,0c0.6,0,1.1,0.5,1.1,1.1
						C47.7,73.2,47.7,73.2,47.7,73.3L47.7,73.3z M45.7,73.1h1.7c0-0.5-0.4-0.8-0.8-0.8S45.7,72.7,45.7,73.1L45.7,73.1z"/>
					<path class="st2" d="M48,74.2l0.1-0.3c0.2,0.2,0.5,0.3,0.8,0.3c0.5,0,0.6-0.2,0.6-0.4c0-0.6-1.5-0.1-1.5-1.1
						c0-0.4,0.3-0.7,0.9-0.7c0.3,0,0.6,0.1,0.8,0.2l-0.1,0.3c-0.2-0.1-0.5-0.2-0.7-0.2c-0.4,0-0.6,0.2-0.6,0.4
						c0,0.6,1.5,0.2,1.5,1.1c0,0.4-0.4,0.7-1,0.7C48.6,74.5,48.3,74.4,48,74.2z"/>
					<path class="st2" d="M51.8,74.3c-0.1,0.1-0.3,0.2-0.5,0.2c-0.3,0-0.7-0.2-0.7-0.6c0,0,0-0.1,0-0.1v-1.4h-0.4v-0.3h0.4v-0.5h0.3
						v0.5h0.7v0.3h-0.7v1.4c0,0.2,0.1,0.4,0.3,0.4c0,0,0.1,0,0.1,0c0.1,0,0.3,0,0.3-0.1L51.8,74.3z"/>
					<path class="st2" d="M53.6,72.1v0.3h-0.1c-0.4,0-0.8,0.3-0.8,0.7c0,0.1,0,0.1,0,0.2v1.2h-0.3v-2.4h0.3v0.5
						C52.9,72.2,53.2,72,53.6,72.1z"/>
					<path class="st2" d="M56.2,73.3h-2c0,0.5,0.4,0.9,0.9,0.8c0,0,0,0,0,0c0.3,0,0.5-0.1,0.7-0.3l0.2,0.2c-0.5,0.5-1.3,0.5-1.8,0
						c-0.2-0.2-0.4-0.5-0.4-0.8c-0.1-0.6,0.4-1.2,1-1.3c0.6-0.1,1.2,0.4,1.3,1C56.2,73.1,56.2,73.2,56.2,73.3
						C56.2,73.3,56.2,73.3,56.2,73.3z M54.2,73.1h1.7c0-0.5-0.4-0.8-0.8-0.8S54.2,72.7,54.2,73.1z"/>
					<path class="st2" d="M59,73.1v1.4h-0.3v-1.3c0.1-0.4-0.2-0.7-0.5-0.8c-0.1,0-0.1,0-0.2,0c-0.4,0-0.8,0.3-0.8,0.7
						c0,0,0,0.1,0,0.1v1.2h-0.3v-2.4h0.3v0.4c0.2-0.3,0.5-0.5,0.9-0.5c0.5,0,0.9,0.3,1,0.9C59,73,59,73,59,73.1z"/>
					<path class="st2" d="M61.7,73v1.5h-0.3v-0.4c-0.2,0.3-0.5,0.4-0.8,0.4c-0.5,0-0.9-0.3-0.9-0.7s0.2-0.7,0.9-0.7h0.8V73
						c0-0.4-0.2-0.6-0.7-0.6c-0.3,0-0.6,0.1-0.8,0.3l-0.1-0.2c0.3-0.2,0.6-0.3,1-0.3c0.5,0,0.9,0.3,0.9,0.8
						C61.7,72.9,61.7,72.9,61.7,73z M61.4,73.8v-0.4h-0.7c-0.5,0-0.6,0.2-0.6,0.4s0.2,0.4,0.6,0.4C60.9,74.3,61.3,74,61.4,73.8
						L61.4,73.8z"/>
					<path class="st2" d="M62.2,74.2l0.2-0.3c0.2,0.2,0.5,0.3,0.8,0.3c0.5,0,0.6-0.2,0.6-0.4c0-0.6-1.5-0.1-1.5-1.1
						c0-0.4,0.3-0.7,0.9-0.7c0.3,0,0.6,0.1,0.8,0.2l-0.1,0.3c-0.2-0.1-0.5-0.2-0.7-0.2c-0.4,0-0.6,0.2-0.6,0.4
						c0,0.6,1.5,0.2,1.5,1.1c0,0.4-0.4,0.7-1,0.7C62.8,74.5,62.5,74.4,62.2,74.2z"/>
					<path class="st2" d="M29.9,62.3c-0.5,0.6-1.2,0.9-2,0.8c-1.1,0.1-2.1-0.7-2.2-1.8c0-0.1,0-0.1,0-0.2c0-1.2,0.9-1.9,2.4-1.9h1.7
						v-0.1c0-0.7-0.5-1.1-1.3-1.1c-0.7,0-1.3,0.2-1.9,0.5l-0.6-1.2c0.9-0.5,1.9-0.7,2.9-0.7c1.7,0,2.7,0.8,2.7,2.3V63h-1.7V62.3z
						 M29.9,60.9v-0.6h-1.4c-0.7,0-1,0.2-1,0.7s0.4,0.8,1,0.8C29.1,61.9,29.6,61.5,29.9,60.9L29.9,60.9z M27.9,56l1.3-1.9l1.7,0.6
						L29.3,56L27.9,56z"/>
					<path class="st2" d="M39.7,57.9c0.4-0.8,1.2-1.2,2.1-1.2v1.7c-1.3-0.1-2.1,0.6-2.1,1.6v3h-1.8v-6.3h1.8V57.9z"/>
					<path class="st2" d="M53.1,60.4h-4.5c0.2,0.8,0.9,1.3,1.6,1.3c0.6,0,1.2-0.2,1.6-0.7l1,1c-0.7,0.7-1.7,1.1-2.7,1.1
						c-1.8,0-3.3-1.4-3.3-3.2c0-1.8,1.4-3.3,3.2-3.3C52.3,56.7,53.3,58.1,53.1,60.4z M51.5,59.4c0-0.7-0.5-1.3-1.2-1.4
						c-0.1,0-0.1,0-0.2,0c-0.8,0-1.4,0.6-1.5,1.4H51.5z"/>
					<path class="st2" d="M62.5,62.3c-0.5,0.6-1.2,0.9-2,0.8c-1.1,0.1-2.1-0.7-2.2-1.8c0-0.1,0-0.1,0-0.2c0-1.2,0.9-1.9,2.4-1.9h1.7
						v-0.1c0-0.7-0.5-1.1-1.3-1.1c-0.7,0-1.3,0.2-1.9,0.5l-0.6-1.2c0.9-0.5,1.9-0.7,2.8-0.7c1.7,0,2.7,0.8,2.7,2.3V63h-1.7V62.3z
						 M62.5,60.9v-0.6h-1.4c-0.7,0-1,0.2-1,0.7s0.4,0.8,1,0.8C61.7,61.9,62.3,61.5,62.5,60.9L62.5,60.9z"/>
					<path class="st2" d="M29.5,66.6c0,0.9-0.7,1.7-1.6,1.7c-0.1,0-0.1,0-0.2,0c-0.5,0-0.9-0.2-1.2-0.5v1.7H26v-4.6h0.6v0.5
						c0.3-0.4,0.7-0.6,1.2-0.6c0.9,0,1.7,0.7,1.7,1.6C29.5,66.5,29.5,66.5,29.5,66.6z M28.9,66.6c0-0.6-0.6-1.1-1.2-1.1
						c-0.6,0-1.1,0.6-1.1,1.2c0,0.6,0.5,1.1,1.1,1.1C28.3,67.8,28.9,67.3,28.9,66.6C28.9,66.7,28.9,66.6,28.9,66.6z"/>
					<path class="st2" d="M34.7,64.9v0.6h-0.1c-0.6,0-1,0.4-1.1,0.9c0,0.1,0,0.1,0,0.2v1.7h-0.6v-3.4h0.6v0.6
						C33.7,65,34.2,64.8,34.7,64.9z"/>
					<path class="st2" d="M37.9,63.8c0-0.2,0.2-0.4,0.4-0.4c0,0,0,0,0,0c0.2,0,0.4,0.2,0.4,0.4c0,0,0,0,0,0c0,0.2-0.2,0.4-0.4,0.4
						c0,0,0,0,0,0C38.1,64.3,37.9,64.1,37.9,63.8C37.9,63.9,37.9,63.9,37.9,63.8z M38,64.9h0.6v3.4H38V64.9z"/>
					<path class="st2" d="M45.3,64.9l-1.5,3.4h-0.6l-1.5-3.4h0.6l1.2,2.7l1.2-2.7H45.3z"/>
					<path class="st2" d="M51,66.2v2h-0.6v-0.4c-0.3,0.3-0.7,0.5-1.1,0.5c-0.8,0-1.3-0.4-1.3-1s0.3-1,1.3-1h1v-0.1
						c0-0.5-0.3-0.8-0.9-0.8c-0.4,0-0.8,0.1-1.1,0.4l-0.3-0.5c0.4-0.3,0.9-0.5,1.4-0.4c0.7-0.1,1.3,0.4,1.4,1.1
						C51,66,51,66.1,51,66.2z M50.4,67.2v-0.5h-0.9c-0.6,0-0.8,0.2-0.8,0.5s0.3,0.6,0.8,0.6C49.8,67.9,50.2,67.6,50.4,67.2
						L50.4,67.2z"/>
					<path class="st2" d="M57.9,63.5v4.7h-0.6v-0.5c-0.3,0.4-0.7,0.6-1.2,0.6c-1-0.1-1.7-0.9-1.6-1.9c0.1-0.9,0.7-1.5,1.6-1.6
						c0.5,0,0.9,0.2,1.2,0.6v-1.9H57.9z M57.3,66.6c0-0.6-0.6-1.1-1.2-1.1c-0.6,0-1.1,0.6-1.1,1.2c0,0.6,0.5,1.1,1.1,1.1
						C56.8,67.8,57.3,67.3,57.3,66.6C57.3,66.7,57.3,66.6,57.3,66.6z"/>
					<path class="st2" d="M64.3,66.2v2h-0.6v-0.4c-0.3,0.3-0.7,0.5-1.1,0.5c-0.8,0-1.3-0.4-1.3-1s0.3-1,1.3-1h1v-0.1
						c0-0.5-0.3-0.8-0.9-0.8c-0.4,0-0.8,0.1-1.1,0.4l-0.3-0.5c0.4-0.3,0.9-0.5,1.4-0.4c0.7-0.1,1.3,0.4,1.4,1.1
						C64.3,66,64.3,66.1,64.3,66.2z M63.7,67.2v-0.5h-0.9c-0.6,0-0.8,0.2-0.8,0.5s0.3,0.6,0.8,0.6C63.2,67.9,63.5,67.6,63.7,67.2z"
						/>
				</g>
			</g>
		</g>
	</g>
</g>
<g id="Capa_2">
	<path class="st2" d="M47.9,44.8c0.3,2.1-1,3.8-3,4c-8.2,0.8-13.3-5.4-14.2-12C29.6,29.1,34.8,21.3,42,20
		c8.3-1.5,16.4,4.2,17.5,12.6c0.5,3.8,0.4,7.7,0.6,11.6c0,0.9,0.1,1.7,0,2.6c-0.1,2.7-2.1,4.6-4.6,4.5c-2.4-0.1-4.3-2.1-4.3-4.7
		c0-3.9,0.1-7.8,0-11.6c0-3.3-2.6-6.2-5.9-6.7c-2.6-0.4-5,0.6-6.3,3c-1.9,3.4-1.8,8.4,1.3,11.5c1.9,1.9,4.1,2.7,6.8,2.1
		c0.2,0,0.3,0,0.5-0.1C47.7,44.7,47.8,44.8,47.9,44.8z"/>
</g>
</svg>
