<svg xmlns="http://www.w3.org/2000/svg" viewBox="0 0 22.69 21.06"><defs><style>.cls-1{fill:#fff;}</style></defs><title>map</title><g id="Capa_2" data-name="Capa 2"><g id="FOOTER"><g id="PÚBLICA"><g id="ICONO"><path class="cls-1" d="M0,20.83V2.73a.64.64,0,0,1,.46-.3L7.53.86a1.47,1.47,0,0,1,.59,0l6.38,1.5a1,1,0,0,0,.62,0L22,.05a.59.59,0,0,1,.72.18V17.52a.75.75,0,0,1-.36.27L15.11,20.6a.81.81,0,0,1-.44,0c-2-.35-4-.71-6-1.05a3,3,0,0,0-1.19-.09C5.24,20,3,20.52.67,21A.59.59,0,0,1,0,20.83Zm7.4-10.6V2.12c0-.32,0-.32-.31-.25L1.23,3.17c-.37.08-.37.08-.37.45V19.79c0,.27,0,.28.29.23l.11,0L7.1,18.7c.24-.05.31-.15.31-.39C7.4,15.62,7.4,12.92,7.4,10.23Zm7.88,1.17v7.9c0,.27,0,.28.26.18l6-2.32a.41.41,0,0,0,.3-.45c0-5.11,0-10.23,0-15.34,0-.33,0-.33-.32-.23-2,.66-4,1.33-5.93,2a.38.38,0,0,0-.3.43C15.29,6.16,15.28,8.78,15.28,11.4Zm-7-1.2c0,2.7,0,5.4,0,8.1,0,.24.07.33.3.37l5.54,1c.27.05.28,0,.28-.26q0-7.92,0-15.85a.3.3,0,0,0-.28-.35L8.61,1.88c-.33-.07-.33-.07-.33.26Z"/></g></g></g></g></svg>