<svg xmlns="http://www.w3.org/2000/svg" viewBox="0 0 40.63 31.67"><defs><style>.cls-1{fill:#8baeb4;}</style></defs><title>meter--g</title><g id="Capa_2" data-name="Capa 2"><g id="cuerpo"><path class="cls-1" d="M40.63,30.84a1.34,1.34,0,0,1-1.08.82,1.16,1.16,0,0,1-1.29-1.09c0-.36-.15-.45-.48-.45h-25a12.45,12.45,0,0,1-8.38-2.93A12.1,12.1,0,0,1,.16,19.9,10.86,10.86,0,0,1,0,17.77q0-2.65,0-5.31A11.8,11.8,0,0,1,1.76,6.2,12.15,12.15,0,0,1,9.26.48,12.29,12.29,0,0,1,20.69,2.92a12.34,12.34,0,0,1,4.46,7.8,13.05,13.05,0,0,1,.17,2.17c0,2.5,0,5,0,7.49,0,.53,0,.54.53.54,4.43,0,8.85,0,13.28,0a1.44,1.44,0,0,1,1.49.81ZM17.25,27.66c1.7,0,3.41,0,5.12,0,.38,0,.5-.13.49-.51,0-.92,0-1.85,0-2.77,0-2.67.13-5.34-.08-8a9.51,9.51,0,0,0-3-6.25,9.88,9.88,0,0,0-8.69-2.77A9.86,9.86,0,0,0,4.77,11a10.21,10.21,0,0,0-2.22,8.27,9.89,9.89,0,0,0,9.66,8.43C13.89,27.69,15.57,27.66,17.25,27.66Zm14.53,0c2,0,4,0,6,0,.31,0,.46-.07.46-.42,0-1.17,0-2.35,0-3.52,0-.32-.13-.42-.43-.41-.62,0-1.24,0-1.86,0s-.53,0-.55.55a1.21,1.21,0,0,1-1.67,1.08A1.28,1.28,0,0,1,33,23.71c0-.32-.15-.41-.44-.4-.56,0-1.11,0-1.67,0-.4,0-.53.14-.52.53A1.12,1.12,0,0,1,29.5,25a1.18,1.18,0,0,1-1.31-.4,1.14,1.14,0,0,1-.26-.85c0-.31-.11-.42-.41-.41-.58,0-1.16,0-1.75,0-.35,0-.45.12-.45.46,0,1.11,0,2.22,0,3.33,0,.56,0,.56.54.56ZM22.11,9A10.12,10.12,0,0,0,11.42,2.54a10,10,0,0,0-5,2C5,5.67,3.27,8,3.27,8.89a12.57,12.57,0,0,1,9.4-4.11A12.59,12.59,0,0,1,22.11,9Z"/><path class="cls-1" d="M12.6,25a7.56,7.56,0,1,1,7.62-7.55A7.56,7.56,0,0,1,12.6,25Zm-5-7.54a5,5,0,0,0,5.06,5.11,5,5,0,0,0,5.14-5.1,5,5,0,0,0-5.11-5.14A5,5,0,0,0,7.55,17.44Z"/></g></g></svg>