<?xml version="1.0" encoding="UTF-8" standalone="no"?>
<!-- Generator: Adobe Illustrator 21.0.0, SVG Export Plug-In . SVG Version: 6.00 Build 0)  -->

<svg
   xmlns:dc="http://purl.org/dc/elements/1.1/"
   xmlns:cc="http://creativecommons.org/ns#"
   xmlns:rdf="http://www.w3.org/1999/02/22-rdf-syntax-ns#"
   xmlns:svg="http://www.w3.org/2000/svg"
   xmlns="http://www.w3.org/2000/svg"
   xmlns:sodipodi="http://sodipodi.sourceforge.net/DTD/sodipodi-0.dtd"
   xmlns:inkscape="http://www.inkscape.org/namespaces/inkscape"
   version="1.1"
   id="Capa_1"
   x="0px"
   y="0px"
   viewBox="0 0 507.59071 546.9283"
   xml:space="preserve"
   width="507.34299"
   height="546.66138"
   sodipodi:docname="reutilizar.svg"
   inkscape:version="0.92.4 (5da689c313, 2019-01-14)"><metadata
   id="metadata13"><rdf:RDF><cc:Work
       rdf:about=""><dc:format>image/svg+xml</dc:format><dc:type
         rdf:resource="http://purl.org/dc/dcmitype/StillImage" /><dc:title></dc:title></cc:Work></rdf:RDF></metadata><defs
   id="defs11" /><sodipodi:namedview
   pagecolor="#ffffff"
   bordercolor="#666666"
   borderopacity="1"
   objecttolerance="10"
   gridtolerance="10"
   guidetolerance="10"
   inkscape:pageopacity="0"
   inkscape:pageshadow="2"
   inkscape:window-width="1920"
   inkscape:window-height="1001"
   id="namedview9"
   showgrid="false"
   fit-margin-top="0"
   fit-margin-left="0"
   fit-margin-right="0"
   fit-margin-bottom="0"
   inkscape:zoom="0.4609375"
   inkscape:cx="252.94033"
   inkscape:cy="293.73167"
   inkscape:window-x="2391"
   inkscape:window-y="-9"
   inkscape:window-maximized="1"
   inkscape:current-layer="Capa_1" />
<g
   id="g6"
   transform="matrix(0.626037,-0.5795245,0.5795245,0.626037,-54.599225,206.20578)"
   style="fill:#dc178d;fill-opacity:1">
	<path
   d="m 256.13,0.125 c -78.9,0 -150.399,37 -197.199,93.1 l -19.2,-18.9 c -3.9,-4.2 -9.901,-5.7 -15.3,-3.6 -5.4,1.5 -9.3,6.299 -9.901,11.999 l -14.399,99 c -1.626,12.188 12.431,19.135 17.1,16.8 3.051,-0.434 105.377,-15.007 99,-14.099 5.7,-0.601 10.201,-4.501 12.001,-9.901 1.8,-5.4 0.599,-11.4 -3.6,-15.599 l -22.8,-22.8 c 35.7,-45.601 92.199,-75 154.3,-75 107.1,0 195.7,87.299 196,194.399 0,0.3 0,0.3 0,0.601 0,3.814 -0.126,7.63 -0.363,11.413 -0.591,9.487 7.701,17.161 17.159,15.778 l 30.236,-4.426 c 7.167,-1.049 12.572,-7.07 12.821,-14.308 0.097,-2.842 0.147,-5.674 0.147,-8.458 C 512.13,115.676 397.209,0.125 256.13,0.125 Z"
   id="path2"
   inkscape:connector-curvature="0"
   style="fill:#dc178d;fill-opacity:1" />
	<path
   d="m 495.03,310.725 c -3.051,0.434 -105.377,15.007 -99,14.099 -5.7,0.601 -10.201,4.501 -12.001,9.901 -1.8,5.4 -0.599,11.4 3.6,15.601 l 24.001,24 c -35.402,46.5 -92.501,76.8 -155.501,76.8 -107.401,0 -196,-87.601 -196,-195 0.101,-1.952 -0.242,-6.154 0.416,-14.141 0.791,-9.622 -7.582,-17.43 -17.043,-16.097 l -30.231,4.255 C 6.13,231.15 0.701,237.099 0.377,244.306 0,252.662 0.17,259.392 0.13,262.424 c 3.3,137.701 117.4,249.701 256,249.701 79.799,0 151.901,-37.601 198.701,-94.9 l 17.699,17.699 c 3.94,4.378 10.488,5.526 15.3,3.6 5.4,-1.5 9.3,-6.299 9.901,-11.999 l 14.399,-99 c 1.24,-9.287 -7.333,-18.429 -17.1,-16.8 z"
   id="path4"
   inkscape:connector-curvature="0"
   style="fill:#dc178d;fill-opacity:1" />
</g>















<text
   xml:space="preserve"
   style="font-style:normal;font-weight:normal;font-size:110.14344788px;line-height:1.25;font-family:sans-serif;letter-spacing:0px;word-spacing:0px;fill:#dc178d;fill-opacity:1;stroke:none;stroke-width:2.75358629;"
   x="-7.7386518"
   y="545.26105"
   id="text822"><tspan
     sodipodi:role="line"
     id="tspan820"
     x="-7.7386518"
     y="545.26105"
     style="stroke-width:2.75358629;fill:#dc178d;fill-opacity:1;">Reutilizar</tspan></text>
</svg>