<svg xmlns="http://www.w3.org/2000/svg" viewBox="0 0 57.37 27.06"><defs><style>.cls-1{fill:#d50e85;}</style></defs><title>roof</title><g id="Capa_2" data-name="Capa 2"><g id="BACABEZERA"><path class="cls-1" d="M0,23.82c3.46-2.47,6.46-5.47,9.68-8.22a3,3,0,0,0,.86-2.5c0-2.41,0-4.81,0-7.21S12,1.9,14,1.72s3.69,1.2,4.12,3.67a4,4,0,0,1,.11.84c0,1.86.76,1.42,1.68.61C22,5,24,3.19,26.1,1.4s2.92-1.87,5.1,0q12.5,10.82,25,21.65c1.09.95,1.7,2.06.67,3.29s-2.19.63-3.16-.21q-8.91-7.68-17.79-15.38c-2-1.71-4-3.36-5.92-5.15-1-.9-1.58-1-2.63,0C19.91,12.1,12.43,18.56,4.94,25,3.53,26.25,2.19,27.92,0,26.36Z"/></g></g></svg>