<svg xmlns="http://www.w3.org/2000/svg" viewBox="0 0 119.93 134.23"><defs><style>.cls-1,.cls-7{fill:#ea0c8b;}.cls-2,.cls-4,.cls-6{fill:none;stroke:#ea0c8b;stroke-linecap:round;stroke-linejoin:round;}.cls-2{stroke-width:1.57px;}.cls-3{opacity:0.42;}.cls-4{stroke-width:1.18px;}.cls-5{opacity:0.53;}.cls-6{stroke-width:1.34px;}.cls-7{opacity:0.49;}.cls-8{fill:#fff;}</style></defs><title>formulario de suscripcion</title><g id="Capa_2" data-name="Capa 2"><g id="cuerpo"><g id="formulario_de_suscripcion" data-name="formulario de suscripcion"><circle class="cls-1" cx="59.96" cy="74.27" r="59.96" transform="translate(-34.96 64.15) rotate(-45)"/><line class="cls-2" x1="44.96" y1="2.69" x2="44.96" y2="8.92"/><line class="cls-2" x1="48.07" y1="5.8" x2="41.84" y2="5.8"/><g class="cls-3"><line class="cls-4" x1="8.2" y1="28.49" x2="8.2" y2="33.17"/><line class="cls-4" x1="10.54" y1="30.83" x2="5.87" y2="30.83"/></g><line class="cls-4" x1="100.31" y1="18.79" x2="100.31" y2="23.46"/><line class="cls-4" x1="102.65" y1="21.12" x2="97.98" y2="21.12"/><g class="cls-5"><line class="cls-6" x1="93.31" y1="11.4" x2="93.31" y2="16.74"/><line class="cls-6" x1="95.98" y1="14.07" x2="90.64" y2="14.07"/></g><circle class="cls-1" cx="5.34" cy="16.93" r="2.86"/><path class="cls-1" d="M82.51,2.9A2.91,2.91,0,1,1,79.6,0,2.9,2.9,0,0,1,82.51,2.9Z"/><circle class="cls-7" cx="28.25" cy="11.14" r="2"/><path class="cls-8" d="M99.92,97.06a13.55,13.55,0,0,1-.66,1.63,6.09,6.09,0,0,1-5.63,3.37q-32.29,0-64.59,0a6.24,6.24,0,0,1-6.31-6.34V53.39A6.24,6.24,0,0,1,29,47.05H93.63c3,0,5.1,1.67,6.29,5ZM61.3,99.42c10.6,0,21.21,0,31.81,0a4,4,0,0,0,4.24-4.21c-.08-9.38,0-18.75,0-28.12q0-6.91,0-13.82c0-.34.09-.82-.23-1s-.58.28-.83.5Q84.42,63.14,72.57,73.46c-.43.37-.55.6-.06,1.05,2.85,2.63,5.68,5.29,8.51,7.95,1.68,1.57,3.36,3.14,5,4.75a1.31,1.31,0,0,1-.36,2.27,1.51,1.51,0,0,1-1.6-.48l-3.39-3.19Q75.56,81,70.44,76.18c-.38-.36-.61-.34-1,0-1.15,1-2.33,2.06-3.52,3.06a7.17,7.17,0,0,1-9.24,0c-1.12-1-2.25-1.9-3.32-2.9-.47-.44-.75-.46-1.23,0-3.63,3.45-7.29,6.87-10.94,10.29-1,.9-1.91,1.81-2.9,2.66a1.29,1.29,0,0,1-1.82-.11,1.27,1.27,0,0,1,.06-1.81c.16-.18.34-.34.51-.5,4.34-4.07,8.66-8.15,13-12.19.57-.53.52-.82,0-1.28-1-.74-1.83-1.57-2.74-2.36L26.65,53c-.31-.27-.62-.84-1-.66s-.26.82-.26,1.26V95.52a4.44,4.44,0,0,0,.11,1.2,3.69,3.69,0,0,0,3.9,2.69Zm.05-49.72H29.55a4.16,4.16,0,0,0-1.36.12c-.21.08-.53,0-.58.33s.24.34.4.47l8,7q11.16,9.75,22.33,19.47a4.45,4.45,0,0,0,6.07,0Q79.21,64.16,94,51.25c.39-.35,1.24-.66,1-1.15s-1.08-.4-1.7-.4Z"/></g></g></g></svg>