<svg xmlns="http://www.w3.org/2000/svg" viewBox="0 0 39.97 41.54"><defs><style>.cls-1{fill:#f60886;}</style></defs><title>umbrella--p</title><g id="Capa_2" data-name="Capa 2"><g id="CABEZERA"><path class="cls-1" d="M23.08,38.85H21.33V28.23h7.53a3.56,3.56,0,0,0,0-7.12H21.33v-8.7H38.62a1.35,1.35,0,0,0,1.18-.69,1.33,1.33,0,0,0,0-1.36C36.44,5.05,29.29,1.53,21.32,1.17a1.35,1.35,0,0,0-2.67,0c-8,.36-15.12,3.88-18.44,9.19a1.33,1.33,0,0,0,0,1.36,1.35,1.35,0,0,0,1.18.69H18.64v8.7H11.11a3.56,3.56,0,1,0,0,7.12h7.53V38.85H16.89a1.35,1.35,0,0,0,0,2.69h6.19a1.35,1.35,0,0,0,0-2.69ZM20,3.83c6.47,0,12.39,2.25,15.89,5.89H4.1C7.59,6.08,13.52,3.83,20,3.83ZM10.24,24.67a.87.87,0,0,1,.87-.87H28.86a.87.87,0,1,1,0,1.74H11.11A.87.87,0,0,1,10.24,24.67Z"/><path class="cls-1" d="M12.6,31A1.35,1.35,0,0,0,11.29,30H4.75V15.8a1.35,1.35,0,1,0-2.69,0V31.18L.12,39.91a1.34,1.34,0,0,0,1,1.6l.29,0a1.33,1.33,0,0,0,1.31-1l1.74-7.82h5.73L12,40.49a1.33,1.33,0,0,0,1.31,1,1.36,1.36,0,0,0,.29,0,1.33,1.33,0,0,0,1-1.6Z"/><path class="cls-1" d="M37.91,31.18V15.8a1.35,1.35,0,1,0-2.69,0V30H28.68A1.34,1.34,0,0,0,27.37,31l-2,8.88a1.35,1.35,0,0,0,1,1.6,1.53,1.53,0,0,0,.3,0,1.34,1.34,0,0,0,1.31-1l1.74-7.82h5.73l1.73,7.82a1.35,1.35,0,0,0,1.32,1l.29,0a1.35,1.35,0,0,0,1-1.6Z"/></g></g></svg>